<?xml version="1.0" encoding="UTF-8"?>
<!DOCTYPE svg PUBLIC "-//W3C//DTD SVG 1.1//EN" "http://www.w3.org/Graphics/SVG/1.1/DTD/svg11.dtd">
<svg version="1.1" xmlns="http://www.w3.org/2000/svg" xmlns:xlink="http://www.w3.org/1999/xlink" x="0" y="0" width="32" height="32" viewBox="0, 0, 64, 64">
  <g id="Layer_1" transform="translate(-18, -18)">
    <g>
      <path d="M78.467,82 C80.42,82 82,80.42 82,78.468 L82,21.536 C82,19.58 80.42,18 78.467,18 L21.531,18 C19.579,18 18,19.58 18,21.536 L18,78.468 C18,80.42 19.579,82 21.531,82 z" fill="#4F659B"/>
      <path d="M62.158,82 L62.158,57.216 L70.478,57.216 L71.722,47.557 L62.158,47.557 L62.158,41.39 C62.158,38.594 62.935,36.687 66.944,36.687 L72.062,36.682 L72.062,28.047 C71.176,27.93 68.138,27.665 64.607,27.665 C57.234,27.665 52.185,32.166 52.185,40.435 L52.185,47.557 L43.842,47.557 L43.842,57.216 L52.185,57.216 L52.185,82 z" fill="#FEFEFE"/>
    </g>
  </g>
</svg>
