<?xml version="1.0" encoding="UTF-8"?>
<!DOCTYPE svg PUBLIC "-//W3C//DTD SVG 1.1//EN" "http://www.w3.org/Graphics/SVG/1.1/DTD/svg11.dtd">
<svg version="1.1" xmlns="http://www.w3.org/2000/svg" xmlns:xlink="http://www.w3.org/1999/xlink" x="0" y="0" width="32" height="32" viewBox="0, 0, 64, 64">
  <g id="Layer_1" transform="translate(-18, -18)">
    <g>
      <path d="M82,76.874 C82,79.706 79.706,82 76.877,82 L23.126,82 C20.295,82 18,79.706 18,76.874 L18,23.126 C18,20.298 20.295,18 23.126,18 L76.877,18 C79.706,18 82,20.298 82,23.126 z" fill="#FFE61E"/>
      <path d="M49.999,28.235 C36.439,28.235 25.445,36.913 25.445,47.627 C25.445,54.513 30.001,60.546 36.838,64 L34.523,72.635 C34.437,72.895 34.507,73.183 34.699,73.372 C34.835,73.505 35.01,73.577 35.2,73.577 C35.348,73.577 35.497,73.516 35.629,73.412 L45.577,66.696 C47.022,66.902 48.498,67.018 49.999,67.018 C63.555,67.018 74.554,58.338 74.554,47.627 C74.554,36.913 63.555,28.235 49.999,28.235" fill="#463535"/>
    </g>
  </g>
</svg>
