<?xml version="1.0" encoding="UTF-8"?>
<!DOCTYPE svg PUBLIC "-//W3C//DTD SVG 1.1//EN" "http://www.w3.org/Graphics/SVG/1.1/DTD/svg11.dtd">
<svg version="1.1" xmlns="http://www.w3.org/2000/svg" xmlns:xlink="http://www.w3.org/1999/xlink" x="0" y="0" width="32" height="32" viewBox="0, 0, 64, 64">
  <g id="Layer_1" transform="translate(-18, -18)">
    <g>
      <path d="M82,70.276 C82,76.755 76.788,82 70.362,82 L29.631,82 C23.208,82 18,76.755 18,70.276 L18,29.727 C18,23.251 23.208,18 29.631,18 L70.362,18 C76.788,18 82,23.251 82,29.727 z" fill="#3CAAE0"/>
      <path d="M71.01,38.498 C69.462,39.189 67.8,39.658 66.055,39.87 C67.835,38.792 69.204,37.084 69.847,35.062 C68.184,36.055 66.334,36.777 64.372,37.169 C62.801,35.481 60.559,34.423 58.084,34.423 C53.317,34.423 49.457,38.313 49.457,43.112 C49.457,43.796 49.535,44.456 49.678,45.095 C42.511,44.731 36.166,41.271 31.906,36.018 C31.166,37.297 30.741,38.792 30.741,40.383 C30.741,43.399 32.262,46.056 34.575,47.615 C33.164,47.568 31.836,47.177 30.674,46.526 L30.674,46.637 C30.674,50.844 33.647,54.356 37.59,55.157 C36.866,55.349 36.1,55.458 35.321,55.458 C34.756,55.458 34.222,55.405 33.692,55.305 C34.79,58.756 37.979,61.268 41.752,61.336 C38.796,63.668 35.08,65.055 31.038,65.055 C30.347,65.055 29.655,65.015 28.983,64.937 C32.798,67.401 37.331,68.839 42.2,68.839 C58.059,68.839 66.727,55.601 66.727,44.12 C66.727,43.747 66.721,43.368 66.703,42.997 C68.387,41.768 69.854,40.241 71.01,38.498" fill="#FEFEFE"/>
    </g>
  </g>
</svg>
